<mxfile host="app.diagrams.net" modified="2023-11-21T15:39:03.105Z" agent="Mozilla/5.0 (Windows NT 10.0; Win64; x64) AppleWebKit/537.36 (KHTML, like Gecko) Chrome/119.0.0.0 Safari/537.36" etag="D3SoF6sg5BixiSPp731_" version="22.1.3" type="github">
  <diagram name="Page-1" id="i5ovTeZBefGdsomwXOiw">
    <mxGraphModel dx="1232" dy="1128" grid="1" gridSize="10" guides="1" tooltips="1" connect="1" arrows="1" fold="1" page="1" pageScale="1" pageWidth="850" pageHeight="1100" math="0" shadow="0">
      <root>
        <mxCell id="0" />
        <mxCell id="1" parent="0" />
        <mxCell id="FpPFE-bx6uuw9TpToztk-3" value="" style="edgeStyle=orthogonalEdgeStyle;rounded=0;orthogonalLoop=1;jettySize=auto;html=1;" edge="1" parent="1" source="FpPFE-bx6uuw9TpToztk-1" target="FpPFE-bx6uuw9TpToztk-2">
          <mxGeometry relative="1" as="geometry" />
        </mxCell>
        <mxCell id="FpPFE-bx6uuw9TpToztk-22" style="edgeStyle=orthogonalEdgeStyle;rounded=0;orthogonalLoop=1;jettySize=auto;html=1;entryX=0;entryY=0.75;entryDx=0;entryDy=0;" edge="1" parent="1" source="FpPFE-bx6uuw9TpToztk-1" target="FpPFE-bx6uuw9TpToztk-6">
          <mxGeometry relative="1" as="geometry">
            <Array as="points">
              <mxPoint x="490" y="235" />
            </Array>
          </mxGeometry>
        </mxCell>
        <mxCell id="FpPFE-bx6uuw9TpToztk-1" value="Home Page" style="rounded=0;whiteSpace=wrap;html=1;" vertex="1" parent="1">
          <mxGeometry x="400" y="340" width="120" height="60" as="geometry" />
        </mxCell>
        <mxCell id="FpPFE-bx6uuw9TpToztk-9" value="" style="edgeStyle=orthogonalEdgeStyle;rounded=0;orthogonalLoop=1;jettySize=auto;html=1;" edge="1" parent="1" source="FpPFE-bx6uuw9TpToztk-2" target="FpPFE-bx6uuw9TpToztk-6">
          <mxGeometry relative="1" as="geometry" />
        </mxCell>
        <mxCell id="FpPFE-bx6uuw9TpToztk-2" value="Contact information" style="whiteSpace=wrap;html=1;rounded=0;" vertex="1" parent="1">
          <mxGeometry x="140" y="170" width="120" height="60" as="geometry" />
        </mxCell>
        <mxCell id="FpPFE-bx6uuw9TpToztk-10" value="" style="edgeStyle=orthogonalEdgeStyle;rounded=0;orthogonalLoop=1;jettySize=auto;html=1;entryX=1;entryY=0.617;entryDx=0;entryDy=0;entryPerimeter=0;" edge="1" parent="1" target="FpPFE-bx6uuw9TpToztk-7">
          <mxGeometry relative="1" as="geometry">
            <mxPoint x="730" y="220" as="sourcePoint" />
            <mxPoint x="790" y="490" as="targetPoint" />
          </mxGeometry>
        </mxCell>
        <mxCell id="FpPFE-bx6uuw9TpToztk-12" style="edgeStyle=orthogonalEdgeStyle;rounded=0;orthogonalLoop=1;jettySize=auto;html=1;entryX=0.5;entryY=1;entryDx=0;entryDy=0;" edge="1" parent="1" source="FpPFE-bx6uuw9TpToztk-6" target="FpPFE-bx6uuw9TpToztk-1">
          <mxGeometry relative="1" as="geometry">
            <Array as="points">
              <mxPoint x="630" y="420" />
              <mxPoint x="460" y="420" />
            </Array>
          </mxGeometry>
        </mxCell>
        <mxCell id="FpPFE-bx6uuw9TpToztk-6" value="Information page" style="whiteSpace=wrap;html=1;" vertex="1" parent="1">
          <mxGeometry x="610" y="190" width="120" height="60" as="geometry" />
        </mxCell>
        <mxCell id="FpPFE-bx6uuw9TpToztk-11" value="" style="edgeStyle=orthogonalEdgeStyle;rounded=0;orthogonalLoop=1;jettySize=auto;html=1;" edge="1" parent="1" source="FpPFE-bx6uuw9TpToztk-7" target="FpPFE-bx6uuw9TpToztk-8">
          <mxGeometry relative="1" as="geometry" />
        </mxCell>
        <mxCell id="FpPFE-bx6uuw9TpToztk-21" style="edgeStyle=orthogonalEdgeStyle;rounded=0;orthogonalLoop=1;jettySize=auto;html=1;entryX=0.75;entryY=1;entryDx=0;entryDy=0;" edge="1" parent="1" source="FpPFE-bx6uuw9TpToztk-7" target="FpPFE-bx6uuw9TpToztk-1">
          <mxGeometry relative="1" as="geometry" />
        </mxCell>
        <mxCell id="FpPFE-bx6uuw9TpToztk-7" value="Application page" style="whiteSpace=wrap;html=1;" vertex="1" parent="1">
          <mxGeometry x="660" y="520" width="120" height="60" as="geometry" />
        </mxCell>
        <mxCell id="FpPFE-bx6uuw9TpToztk-19" style="edgeStyle=orthogonalEdgeStyle;rounded=0;orthogonalLoop=1;jettySize=auto;html=1;entryX=0;entryY=0.75;entryDx=0;entryDy=0;" edge="1" parent="1" source="FpPFE-bx6uuw9TpToztk-8" target="FpPFE-bx6uuw9TpToztk-1">
          <mxGeometry relative="1" as="geometry">
            <Array as="points">
              <mxPoint x="340" y="490" />
              <mxPoint x="380" y="490" />
              <mxPoint x="380" y="385" />
            </Array>
          </mxGeometry>
        </mxCell>
        <mxCell id="FpPFE-bx6uuw9TpToztk-8" value="Survey &amp;amp; Form" style="whiteSpace=wrap;html=1;" vertex="1" parent="1">
          <mxGeometry x="260" y="580" width="120" height="60" as="geometry" />
        </mxCell>
        <mxCell id="FpPFE-bx6uuw9TpToztk-20" style="edgeStyle=orthogonalEdgeStyle;rounded=0;orthogonalLoop=1;jettySize=auto;html=1;entryX=0.192;entryY=0.033;entryDx=0;entryDy=0;entryPerimeter=0;" edge="1" parent="1" source="FpPFE-bx6uuw9TpToztk-2" target="FpPFE-bx6uuw9TpToztk-1">
          <mxGeometry relative="1" as="geometry" />
        </mxCell>
        <mxCell id="FpPFE-bx6uuw9TpToztk-24" style="edgeStyle=orthogonalEdgeStyle;rounded=0;orthogonalLoop=1;jettySize=auto;html=1;entryX=0.358;entryY=0.033;entryDx=0;entryDy=0;entryPerimeter=0;" edge="1" parent="1" source="FpPFE-bx6uuw9TpToztk-1" target="FpPFE-bx6uuw9TpToztk-7">
          <mxGeometry relative="1" as="geometry" />
        </mxCell>
        <mxCell id="FpPFE-bx6uuw9TpToztk-25" style="edgeStyle=orthogonalEdgeStyle;rounded=0;orthogonalLoop=1;jettySize=auto;html=1;exitX=0.25;exitY=1;exitDx=0;exitDy=0;entryX=0.658;entryY=-0.033;entryDx=0;entryDy=0;entryPerimeter=0;" edge="1" parent="1" source="FpPFE-bx6uuw9TpToztk-1" target="FpPFE-bx6uuw9TpToztk-8">
          <mxGeometry relative="1" as="geometry" />
        </mxCell>
      </root>
    </mxGraphModel>
  </diagram>
</mxfile>
